# xmcd
#
# Track frame offsets:
#  150
#  16687
#  30769
#  46754
#  64976
#  94069
#  111546
#  129388
#  143758
#  161171
#  179197
#
# Disc length: 2634 seconds
#
# Revision: 0
# Processed by: cddbd v1.5.1PL2 Copyright (c) Steve Scherf et al.
# Submitted via: Collectorz.com_Music_Collector 6.10
#
DISCID=910a480b
DTITLE=Rascal Flatts - Rascal Flatts
DYEAR=2000
DGENRE=Contemporary Country
TTITLE0=Prayin' For Daylight
TTITLE1=This Everyday Love
TTITLE2=While You Loved Me
TTITLE3=Some Say
TTITLE4=See Me Through
TTITLE5=One Good Love
TTITLE6=It's Not Just Me
TTITLE7=Waiting All My Life
TTITLE8=From Time To Time
TTITLE9=Long Slow Beautiful Dance
TTITLE10=I'm Movin' On
EXTD=
EXTT0=
EXTT1=
EXTT2=
EXTT3=
EXTT4=
EXTT5=
EXTT6=
EXTT7=
EXTT8=
EXTT9=
EXTT10=
PLAYORDER=
